<svg width="15" height="11" viewBox="0 0 15 11" fill="none" xmlns="http://www.w3.org/2000/svg">
<path d="M3.372 10.2C2.78 10.2 2.26 10.108 1.812 9.924C1.364 9.748 1.012 9.492 0.755999 9.156C0.507999 8.82 0.383999 8.412 0.383999 7.932H1.668C1.668 8.22 1.728 8.452 1.848 8.628C1.968 8.804 2.156 8.928 2.412 9C2.676 9.08 3.02 9.12 3.444 9.12C3.9 9.12 4.26 9.068 4.524 8.964C4.796 8.868 4.992 8.696 5.112 8.448C5.232 8.2 5.292 7.856 5.292 7.416V3.924L5.388 3.84V2.076H6.576V7.344C6.576 8.008 6.444 8.548 6.18 8.964C5.916 9.388 5.544 9.7 5.064 9.9C4.584 10.1 4.02 10.2 3.372 10.2ZM2.832 7.5C2.24 7.5 1.732 7.384 1.308 7.152C0.891999 6.92 0.567999 6.596 0.335999 6.18C0.111999 5.764 -5.96046e-07 5.28 -5.96046e-07 4.728C-5.96046e-07 4.176 0.115999 3.692 0.347999 3.276C0.587999 2.86 0.923999 2.536 1.356 2.304C1.796 2.072 2.316 1.956 2.916 1.956C3.54 1.956 4.068 2.096 4.5 2.376C4.94 2.648 5.212 3.044 5.316 3.564H5.592L5.52 4.608H5.292C5.292 4.272 5.212 3.992 5.052 3.768C4.892 3.536 4.664 3.364 4.368 3.252C4.072 3.14 3.712 3.084 3.288 3.084C2.88 3.084 2.524 3.136 2.22 3.24C1.924 3.344 1.696 3.516 1.536 3.756C1.384 3.988 1.308 4.312 1.308 4.728C1.308 5.136 1.384 5.46 1.536 5.7C1.688 5.94 1.908 6.116 2.196 6.228C2.492 6.332 2.844 6.384 3.252 6.384C3.908 6.384 4.412 6.248 4.764 5.976C5.116 5.704 5.292 5.304 5.292 4.776H5.52V5.952H5.208C5.104 6.408 4.852 6.78 4.452 7.068C4.052 7.356 3.512 7.5 2.832 7.5ZM11.5312 8.16C10.8512 8.16 10.2992 8.004 9.87516 7.692C9.45116 7.372 9.17516 6.916 9.04716 6.324H8.75916L8.84316 5.124H9.07116C9.07116 5.532 9.15116 5.876 9.31116 6.156C9.47916 6.436 9.71516 6.644 10.0192 6.78C10.3312 6.908 10.6992 6.972 11.1232 6.972C11.5632 6.972 11.9312 6.912 12.2272 6.792C12.5312 6.672 12.7592 6.472 12.9112 6.192C13.0712 5.912 13.1512 5.536 13.1512 5.064C13.1512 4.584 13.0712 4.204 12.9112 3.924C12.7512 3.644 12.5232 3.444 12.2272 3.324C11.9312 3.196 11.5712 3.132 11.1472 3.132C10.4752 3.132 9.95916 3.292 9.59916 3.612C9.24716 3.924 9.07116 4.396 9.07116 5.028H8.84316V3.696H9.14316C9.26316 3.192 9.52316 2.776 9.92316 2.448C10.3312 2.12 10.8912 1.956 11.6032 1.956C12.2192 1.956 12.7352 2.088 13.1512 2.352C13.5752 2.608 13.8952 2.968 14.1112 3.432C14.3352 3.896 14.4472 4.44 14.4472 5.064C14.4472 5.672 14.3352 6.212 14.1112 6.684C13.8952 7.148 13.5672 7.512 13.1272 7.776C12.6952 8.032 12.1632 8.16 11.5312 8.16ZM8.96316 8.04H7.77516V7.15256e-07H9.07116V6.012L8.96316 6.168V8.04Z" fill="black"/>
</svg>
